<svg width="36" height="36" viewBox="0 0 36 36" fill="none" xmlns="http://www.w3.org/2000/svg">
<g clip-path="url(#clip0_20_49)">
<path fill-rule="evenodd" clip-rule="evenodd" d="M6 18C6.00022 15.6907 6.66677 13.4305 7.91968 11.4906C9.17259 9.55068 10.9586 8.01352 13.0635 7.06352C15.1684 6.11352 17.5027 5.79106 19.7863 6.13481C22.0698 6.47856 24.2058 7.47394 25.9377 9.00149C27.6696 10.529 28.924 12.5239 29.5503 14.7467C30.1766 16.9694 30.1482 19.3257 29.4685 21.5328C28.7889 23.7398 27.4869 25.7039 25.7187 27.1893C23.9505 28.6747 21.7912 29.6183 19.5 29.907V21H22.5C22.8978 21 23.2794 20.842 23.5607 20.5607C23.842 20.2794 24 19.8978 24 19.5C24 19.1022 23.842 18.7206 23.5607 18.4393C23.2794 18.158 22.8978 18 22.5 18H19.5V15C19.5 14.6022 19.658 14.2206 19.9393 13.9393C20.2206 13.658 20.6022 13.5 21 13.5H21.75C22.1478 13.5 22.5294 13.342 22.8107 13.0607C23.092 12.7794 23.25 12.3978 23.25 12C23.25 11.6022 23.092 11.2206 22.8107 10.9393C22.5294 10.658 22.1478 10.5 21.75 10.5H21C19.8065 10.5 18.6619 10.9741 17.818 11.818C16.9741 12.6619 16.5 13.8065 16.5 15V18H13.5C13.1022 18 12.7206 18.158 12.4393 18.4393C12.158 18.7206 12 19.1022 12 19.5C12 19.8978 12.158 20.2794 12.4393 20.5607C12.7206 20.842 13.1022 21 13.5 21H16.5V29.907C13.6 29.5413 10.9332 28.1299 9 25.9376C7.06678 23.7453 6.00005 20.9229 6 18ZM18 33C26.2845 33 33 26.2845 33 18C33 9.7155 26.2845 3 18 3C9.7155 3 3 9.7155 3 18C3 26.2845 9.7155 33 18 33Z" fill="black"/>
</g>
<defs>
<clipPath id="clip0_20_49">
<rect width="36" height="36" fill="white"/>
</clipPath>
</defs>
</svg>
