<svg width="31" height="31" viewBox="0 0 31 31" fill="none" xmlns="http://www.w3.org/2000/svg">
<path d="M29.1942 12.9219C29.1403 12.624 28.9836 12.3546 28.7513 12.1605C28.519 11.9664 28.2259 11.8601 27.9232 11.8601H15.7583C15.4157 11.8601 15.0872 11.9962 14.8449 12.2385C14.6027 12.4807 14.4666 12.8092 14.4666 13.1518V18.148C14.4666 18.4905 14.6027 18.8191 14.8449 19.0613C15.0872 19.3035 15.4157 19.4396 15.7583 19.4396H20.8759C20.5114 20.0548 20.0119 20.5791 19.415 20.9728C18.3232 21.665 17.0506 22.0179 15.7583 21.9868C14.4183 21.9715 13.1172 21.5343 12.0399 20.7374C10.9626 19.9404 10.1639 18.8242 9.7572 17.5473V17.5448C9.30479 16.2187 9.30479 14.7801 9.7572 13.454V13.4515C10.1643 12.175 10.9632 11.0591 12.0404 10.2624C13.1177 9.46575 14.4185 9.02868 15.7583 9.0133C16.5027 8.99616 17.2431 9.1262 17.9372 9.39596C18.6312 9.66572 19.2651 10.0699 19.8025 10.5853C20.0464 10.819 20.3722 10.9478 20.71 10.9442C21.0478 10.9406 21.3707 10.8048 21.6095 10.5659L25.314 6.86138C25.4368 6.73875 25.5336 6.59265 25.5986 6.4318C25.6636 6.27095 25.6956 6.09864 25.6926 5.92517C25.6896 5.75169 25.6516 5.5806 25.5811 5.42211C25.5105 5.26361 25.4087 5.12096 25.2817 5.00267C22.7036 2.5854 19.2922 1.2561 15.7583 1.29171C13.1231 1.28386 10.5381 2.01243 8.2949 3.39525C6.05166 4.77807 4.23941 6.76013 3.06249 9.11792L3.0612 9.1205C2.06347 11.0988 1.54574 13.2844 1.54995 15.5C1.55304 17.7153 2.07037 19.8996 3.0612 21.8809L3.06249 21.8822C4.23941 24.24 6.05166 26.222 8.2949 27.6048C10.5381 28.9877 13.1231 29.7162 15.7583 29.7084C19.227 29.7964 22.5981 28.5547 25.181 26.2377L25.1823 26.2364C26.5823 24.8896 27.6852 23.265 28.4202 21.4667C29.1551 19.6685 29.5059 17.7364 29.45 15.7945C29.4505 14.8313 29.3649 13.8699 29.1942 12.9219ZM15.7583 3.87505C18.1749 3.8517 20.5344 4.60965 22.4853 6.036L20.6085 7.9128C19.1847 6.92747 17.4897 6.40927 15.7583 6.42996C14.1775 6.43777 12.6274 6.86673 11.2675 7.67269C9.90756 8.47864 8.78702 9.63247 8.0212 11.0154L6.6417 9.94588L5.88608 9.35946C6.92554 7.67762 8.37884 6.29037 10.1072 5.33021C11.8355 4.37005 13.7812 3.86904 15.7583 3.87505ZM4.75329 19.2498C3.92773 16.8181 3.92773 14.182 4.75329 11.7503L7.05504 13.5354C6.76071 14.8286 6.76071 16.1715 7.05504 17.4647L4.75329 19.2498ZM15.7583 27.125C13.7809 27.1313 11.835 26.6304 10.1064 25.6702C8.37787 24.71 6.92436 23.3227 5.88479 21.6406L6.37433 21.2609L8.02249 19.9821C8.78776 21.3654 9.90793 22.5197 11.2676 23.3261C12.6273 24.1326 14.1774 24.562 15.7583 24.5701C17.2381 24.5879 18.7012 24.256 20.0285 23.6014L22.2127 25.2973C20.2911 26.5354 18.0437 27.1718 15.7583 27.125ZM24.1877 23.56L23.9513 23.3753L22.1727 21.9945C23.1058 20.9866 23.733 19.734 23.981 18.383C24.0155 18.1966 24.0086 18.0048 23.9606 17.8214C23.9127 17.6379 23.825 17.4673 23.7036 17.3216C23.5823 17.1758 23.4304 17.0586 23.2587 16.9782C23.087 16.8978 22.8997 16.8562 22.71 16.8563H17.05V14.4435H26.8007C26.8447 14.8891 26.8666 15.3412 26.8666 15.7945C26.942 18.6214 25.9902 21.3811 24.1877 23.56Z" fill="black"/>
</svg>
