<svg width="28" height="28" viewBox="0 0 28 28" fill="none" xmlns="http://www.w3.org/2000/svg">
<path d="M7.329 17.6664L8.617 17.3689C8.6601 17.3592 8.70273 17.3475 8.74475 17.3339C8.96625 17.2745 9.1701 17.1624 9.33896 17.0073C9.50781 16.8521 9.63665 16.6584 9.71451 16.4427C9.79237 16.227 9.81693 15.9957 9.78611 15.7684C9.75529 15.5412 9.67 15.3248 9.5375 15.1376C9.39349 14.9544 9.21517 14.8011 9.0125 14.6861C8.77309 14.5496 8.52253 14.4337 8.2635 14.3396L6.8495 13.8234C6.0566 13.5282 5.26089 13.2406 4.4625 12.9606C3.94275 12.7751 3.5 12.6141 3.12025 12.4951C3.0485 12.4724 2.968 12.4514 2.90325 12.4286C2.5614 12.3101 2.20419 12.2418 1.84275 12.2256C1.65451 12.218 1.46695 12.2526 1.29377 12.3268C1.12059 12.401 0.966157 12.5129 0.841753 12.6544C0.776546 12.7281 0.715213 12.8052 0.658003 12.8854C0.547769 13.055 0.456791 13.2363 0.386753 13.4261C0.124253 14.2014 -0.0069968 15.0151 0.0017532 15.8341C0.0052532 16.5744 0.0245032 17.5246 0.432253 18.1686C0.529825 18.334 0.660979 18.4771 0.817253 18.5886C1.10775 18.7881 1.4 18.8144 1.7045 18.8354C2.1595 18.8686 2.60225 18.7566 3.0415 18.6551L7.32375 17.6646L7.329 17.6664ZM21.7122 10.8221C21.3603 10.0836 20.8871 9.40926 20.3123 8.82712C20.1656 8.6876 20.0042 8.56438 19.831 8.45962C19.7458 8.41247 19.6582 8.36983 19.5685 8.33187C19.3947 8.2595 19.207 8.22682 19.019 8.2362C18.831 8.24559 18.6475 8.2968 18.4818 8.38612C18.2333 8.50862 17.9673 8.70462 17.6138 9.03362C17.5648 9.08262 17.5035 9.13862 17.4493 9.18937C17.157 9.46237 16.8315 9.80187 16.4448 10.1956C15.8498 10.7994 15.26 11.4049 14.6773 12.0191L13.6308 13.1041C13.4392 13.3019 13.2648 13.5156 13.1093 13.7429C12.9761 13.9347 12.8827 14.1513 12.8345 14.3799C12.8058 14.5547 12.8099 14.7333 12.8468 14.9066C12.8468 14.9154 12.8503 14.9224 12.852 14.9294C12.9342 15.2883 13.1526 15.6013 13.4611 15.8024C13.7696 16.0035 14.1441 16.077 14.5058 16.0074C14.5493 16.0013 14.5925 15.9931 14.6353 15.9829L20.209 14.6949C20.6483 14.5934 21.0945 14.4989 21.49 14.2714C21.7543 14.1174 22.0063 13.9651 22.1795 13.6589C22.2714 13.4897 22.3269 13.3031 22.3423 13.1111C22.4298 12.3516 22.0308 11.4889 21.7122 10.8221ZM11.7355 13.1654C12.138 12.6579 12.138 11.9019 12.173 11.2841C12.2955 9.21737 12.4233 7.15062 12.5248 5.08387C12.5633 4.29987 12.6473 3.52637 12.6018 2.73887C12.5633 2.08787 12.558 1.34062 12.1468 0.806866C11.424 -0.134634 9.877 -0.0576336 8.82 0.0876164C8.49625 0.131366 8.1725 0.192616 7.85225 0.269616C7.53239 0.344748 7.21542 0.431725 6.902 0.530366C5.887 0.862866 4.46425 1.47012 4.2245 2.63737C4.088 3.29712 4.41 3.97262 4.66025 4.57462C4.963 5.30437 5.37775 5.96062 5.754 6.64837C6.7515 8.46137 7.7665 10.2639 8.778 12.0681C9.079 12.6071 9.408 13.2879 9.99425 13.5679C10.0328 13.5854 10.073 13.5994 10.1133 13.6116C10.3758 13.7114 10.661 13.7306 10.934 13.6676L10.983 13.6554C11.2352 13.5869 11.4636 13.4501 11.6428 13.2599C11.6753 13.2294 11.7063 13.199 11.7355 13.1654ZM11.2525 18.6971C11.0752 18.4488 10.8156 18.2715 10.5199 18.1965C10.2242 18.1215 9.91143 18.1538 9.63725 18.2876C9.54823 18.3326 9.46333 18.3853 9.3835 18.4451C9.15564 18.6245 8.95209 18.8327 8.778 19.0646C8.7325 19.1224 8.6905 19.1994 8.638 19.2466L7.742 20.4804C7.2345 21.1716 6.73225 21.8646 6.23525 22.5681C5.9115 23.0231 5.62975 23.4064 5.40925 23.7459L5.28325 23.9384C5.01725 24.3496 4.86675 24.6489 4.78975 24.9166C4.73242 25.0938 4.7145 25.2813 4.73725 25.4661C4.76 25.6586 4.82475 25.8459 4.92625 26.0121C4.9805 26.0944 5.03825 26.1749 5.10125 26.2536C5.23503 26.4084 5.38591 26.5475 5.551 26.6684C6.6928 27.4418 8.01835 27.9006 9.394 27.9984C9.5987 28.0051 9.80352 27.9893 10.0048 27.9511C10.1013 27.9283 10.1965 27.9002 10.29 27.8671C10.4721 27.7984 10.6379 27.6923 10.7765 27.5556C10.9084 27.424 11.0099 27.2651 11.074 27.0901C11.1773 26.8329 11.2455 26.5039 11.2893 26.0174L11.3103 25.7899C11.3453 25.3856 11.3628 24.9114 11.389 24.3531C11.4328 23.4956 11.466 22.6381 11.494 21.7824L11.5518 20.2599C11.5745 19.8937 11.5421 19.5261 11.4555 19.1696C11.4128 19.0022 11.3454 18.8428 11.2525 18.6971ZM21.3728 21.0806C21.1152 20.8197 20.8218 20.597 20.5013 20.4191L20.3053 20.3019C19.957 20.0919 19.5388 19.8714 19.047 19.6054C18.2945 19.1924 17.542 18.7899 16.7808 18.3891L15.4385 17.6769C15.3685 17.6559 15.2985 17.6069 15.232 17.5736C14.9739 17.4418 14.6998 17.3442 14.4165 17.2831C14.3184 17.2641 14.2189 17.2535 14.119 17.2516C13.8143 17.2528 13.5199 17.3616 13.2877 17.5589C13.0556 17.7562 12.9006 18.0291 12.8503 18.3296C12.8294 18.5004 12.8353 18.6734 12.8678 18.8424C12.9343 19.1994 13.0953 19.5529 13.2598 19.8626L13.9773 21.2066C14.3763 21.9661 14.7805 22.7186 15.1953 23.4711C15.4613 23.9611 15.6853 24.3811 15.8918 24.7294C15.932 24.7941 15.9758 24.8641 16.0108 24.9254C16.2645 25.3436 16.4675 25.6079 16.674 25.7951C16.8106 25.9278 16.9752 26.0282 17.1557 26.0891C17.3361 26.1499 17.5279 26.1697 17.717 26.1469C17.8159 26.1354 17.914 26.1184 18.011 26.0961C18.2083 26.0421 18.3991 25.9664 18.5798 25.8704C19.1256 25.5645 19.6287 25.188 20.076 24.7504C20.6115 24.2254 21.0858 23.6479 21.455 22.9899C21.5075 22.8971 21.5513 22.7991 21.588 22.7011C21.6228 22.6089 21.6525 22.5148 21.6773 22.4194C21.7 22.3214 21.7158 22.2251 21.728 22.1254C21.7462 21.9321 21.7235 21.7371 21.6615 21.5531C21.601 21.3764 21.5024 21.2151 21.3728 21.0806Z" fill="black"/>
</svg>
